HIERARCHY
ROOT Pelvis
{
	OFFSET 0.000000 0.000000 0.000000
	CHANNELS 6 Xposition Yposition Zposition Xrotation Yrotation Zrotation
	JOINT LeftUpLeg_virtual
	{
		OFFSET 0.000000 0.000000 0.000000
		CHANNELS 3 Xrotation Yrotation Zrotation
		JOINT LeftUpLeg
		{
			OFFSET 18.735201 -5.666702 -4.541200
			CHANNELS 3 Xrotation Yrotation Zrotation
			JOINT LeftLeg
			{
				OFFSET -0.021200 -31.938179 0.493100
				CHANNELS 3 Xrotation Yrotation Zrotation
				JOINT LeftFoot
				{
					OFFSET 0.021200 -31.938179 -4.336299
					CHANNELS 3 Xrotation Yrotation Zrotation
					JOINT LeftToeBase
					{
						OFFSET 0.943001 -26.722000 15.023500
						CHANNELS 3 Xrotation Yrotation Zrotation
						End Site
						{
							OFFSET 0 0 0
						}
					}
				}
			}
		}
	}
	JOINT RightUpLeg_virtual
	{
		OFFSET 0.000000 0.000000 0.000000
		CHANNELS 3 Xrotation Yrotation Zrotation
		JOINT RightUpLeg
		{
			OFFSET -18.735201 -5.666702 -4.541200
			CHANNELS 3 Xrotation Yrotation Zrotation
			JOINT RightLeg
			{
				OFFSET 0.018946 -31.938133 0.493100
				CHANNELS 3 Xrotation Yrotation Zrotation
				JOINT RightFoot
				{
					OFFSET -0.018946 -31.938126 -4.336299
					CHANNELS 3 Xrotation Yrotation Zrotation
					JOINT RightToeBase
					{
						OFFSET -0.943001 -26.722004 15.023500
						CHANNELS 3 Xrotation Yrotation Zrotation
						End Site
						{
							OFFSET 0 0 0
						}
					}
				}
			}
		}
	}
	JOINT Hips_virtual
	{
		OFFSET 0.000000 0.000000 0.000000
		CHANNELS 3 Xrotation Yrotation Zrotation
		JOINT Hips
		{
			OFFSET -0.000000 -0.000000 -0.000000
			CHANNELS 3 Xrotation Yrotation Zrotation
			JOINT Spine
			{
				OFFSET 0.000000 10.199997 -0.299500
				CHANNELS 3 Xrotation Yrotation Zrotation
				JOINT Spine1
				{
					OFFSET 0.000000 11.900002 -1.516600
					CHANNELS 3 Xrotation Yrotation Zrotation
					JOINT Spine2
					{
						OFFSET 0.000000 13.600006 -2.842500
						CHANNELS 3 Xrotation Yrotation Zrotation
						JOINT Neck_virtual
						{
							OFFSET 0.000000 0.000000 0.000000
							CHANNELS 3 Xrotation Yrotation Zrotation
							JOINT Neck
							{
								OFFSET 0.000000 9.624100 -2.890100
								CHANNELS 3 Xrotation Yrotation Zrotation
								JOINT Head
								{
									OFFSET 0.000000 14.068802 -1.351900
									CHANNELS 3 Xrotation Yrotation Zrotation
									End Site
									{
										OFFSET 0 0 0
									}
								}
							}
						}
						JOINT LeftShoulder_virtual
						{
							OFFSET 0.000000 0.000000 0.000000
							CHANNELS 3 Xrotation Yrotation Zrotation
							JOINT LeftShoulder
							{
								OFFSET 15.263000 10.923401 -0.547700
								CHANNELS 3 Xrotation Yrotation Zrotation
								JOINT LeftArm
								{
									OFFSET 25.438599 -2.830597 -13.032500
									CHANNELS 3 Xrotation Yrotation Zrotation
									JOINT LeftForeArm
									{
										OFFSET 29.960503 0.000000 0.000000
										CHANNELS 3 Xrotation Yrotation Zrotation
										JOINT LeftHand
										{
											OFFSET 27.849251 0.000000 0.000000
											CHANNELS 3 Xrotation Yrotation Zrotation
											End Site
											{
												OFFSET 0 0 0
											}
										}
									}
								}
							}
						}
						JOINT RightShoulder_virtual
						{
							OFFSET 0.000000 0.000000 0.000000
							CHANNELS 3 Xrotation Yrotation Zrotation
							JOINT RightShoulder
							{
								OFFSET -15.263000 10.923401 -0.547700
								CHANNELS 3 Xrotation Yrotation Zrotation
								JOINT RightArm
								{
									OFFSET -25.438599 -2.830597 -13.032500
									CHANNELS 3 Xrotation Yrotation Zrotation
									JOINT RightForeArm
									{
										OFFSET -29.960503 0.000000 0.000000
										CHANNELS 3 Xrotation Yrotation Zrotation
										JOINT RightHand
										{
											OFFSET -27.849251 0.000000 0.000000
											CHANNELS 3 Xrotation Yrotation Zrotation
											End Site
											{
												OFFSET 0 0 0
											}
										}
									}
								}
							}
						}
					}
				}
			}
		}
	}
}
MOTION
Frames: 11
Frame Time: 0.03333333
-6.442564 83.580498 11.639618 0.000000 0.000000 0.000000 3.954155 -12.881469 2.456949 -42.432878 6.480512 21.146979 41.225557 6.357811 -4.203192 -13.216867 8.062002 -8.166625 0.000000 0.000000 0.000000 12.092058 -48.787737 -0.409911 -20.141634 -18.749542 -24.736509 40.232177 3.348036 2.429035 -13.820476 -1.765386 16.253432 0.000000 0.000000 0.000000 -7.141030 -52.499976 -1.757174 20.979469 3.339217 -9.658581 2.646699 -14.395940 6.706160 1.473606 -7.251484 3.620819 0.000000 0.000000 0.000000 -8.578178 -4.243080 5.131161 -2.726588 3.668457 2.050705 0.000000 0.000000 0.000000 -3.873957 -10.013546 3.654528 -4.742957 -21.251012 22.355358 -31.970367 -19.535031 -13.163284 7.461053 -21.625890 -4.389185 0.000000 0.000000 0.000000 -9.625400 -9.994064 5.326509 -5.607920 -18.980990 4.614981 -13.307120 -23.445266 -1.824147 -7.184188 72.102912 2.190165 0.000000 0.000000 0.000000 
-6.934598 83.876129 12.359497 0.000000 0.000000 0.000000 4.781281 -11.652540 2.515475 -40.897527 6.926012 21.044622 39.517289 6.616828 -3.866616 -14.564911 8.148146 -7.616673 0.000000 0.000000 0.000000 12.109405 -48.373818 -0.250290 -19.798871 -18.748060 -24.331401 40.605454 1.454791 2.271636 -13.162337 -3.301585 14.731480 0.000000 0.000000 0.000000 -6.692526 -51.447341 -1.668004 21.465661 4.080536 -10.129062 1.656636 -14.642611 6.598671 1.047362 -7.307386 3.600299 0.000000 0.000000 0.000000 -8.737686 -4.611466 5.188576 -2.752580 3.469529 2.179913 0.000000 0.000000 0.000000 -4.544025 -9.993250 3.953782 -4.842228 -20.929148 24.848901 -33.982363 -22.127537 -10.933761 6.993347 -23.917470 -3.414659 0.000000 0.000000 0.000000 -10.427705 -10.181567 5.032385 -6.364456 -19.381780 2.863405 -12.496786 -23.449202 -3.498947 -6.701587 72.732369 2.005043 0.000000 0.000000 0.000000 
-7.439344 84.047279 13.130157 0.000000 0.000000 0.000000 5.555659 -10.301430 2.665592 -39.367684 7.345400 21.043712 37.891250 6.384044 -3.625313 -15.765605 7.872286 -7.505779 0.000000 0.000000 0.000000 11.932796 -47.722586 -0.180266 -19.645813 -18.624348 -23.915180 41.452070 -0.519327 2.040236 -12.139449 -4.871887 13.031249 0.000000 0.000000 0.000000 -6.229068 -50.205336 -1.548606 21.791937 4.816618 -10.509998 0.614868 -14.826831 6.380726 0.621219 -7.329887 3.509277 0.000000 0.000000 0.000000 -8.856957 -4.905841 5.144297 -2.767887 3.284670 2.277872 0.000000 0.000000 0.000000 -5.273855 -9.876840 4.199427 -5.034479 -20.380282 27.295019 -36.076438 -24.662830 -8.870309 6.464841 -26.277425 -2.434979 0.000000 0.000000 0.000000 -11.232643 -10.320863 4.650927 -7.173375 -19.662668 0.778496 -11.871486 -23.337554 -5.261365 -6.450499 73.164836 2.063958 0.000000 0.000000 0.000000 
-7.954610 84.071747 13.963673 0.000000 0.000000 0.000000 6.270775 -8.811635 2.878747 -37.880038 7.756905 21.137041 36.414566 5.737643 -3.505307 -16.788682 7.314964 -7.796908 0.000000 0.000000 0.000000 11.548982 -46.787807 -0.242289 -19.703902 -18.352939 -23.529850 42.917176 -2.455283 1.745872 -10.651583 -6.378639 11.216667 0.000000 0.000000 0.000000 -5.749907 -48.769350 -1.395258 21.980348 5.550466 -10.763970 -0.474589 -14.946464 6.049554 0.199956 -7.319954 3.344799 0.000000 0.000000 0.000000 -8.964253 -5.117426 4.994924 -2.785883 3.117347 2.343953 0.000000 0.000000 0.000000 -6.051139 -9.664049 4.386790 -5.324768 -19.632211 29.666889 -38.225864 -27.121800 -6.984161 5.889053 -28.689428 -1.453880 0.000000 0.000000 0.000000 -12.030021 -10.405747 4.184197 -8.028755 -19.800505 -1.643273 -11.475952 -23.043549 -7.119855 -6.500860 73.416938 2.428030 0.000000 0.000000 0.000000 
-8.473343 83.930183 14.869878 0.000000 0.000000 0.000000 6.927967 -7.195578 3.127191 -36.468364 8.173679 21.313127 35.160263 4.771585 -3.509827 -17.608999 6.552067 -8.422685 0.000000 0.000000 0.000000 10.949964 -45.512880 -0.479945 -19.991513 -17.905727 -23.223487 45.113133 -4.205808 1.417572 -8.609394 -7.703389 9.399558 0.000000 0.000000 0.000000 -5.252087 -47.126908 -1.206433 22.061941 6.285975 -10.857713 -1.607242 -14.998114 5.602637 -0.212741 -7.278265 3.104478 0.000000 0.000000 0.000000 -9.088189 -5.243254 4.737596 -2.820251 2.967176 2.377103 0.000000 0.000000 0.000000 -6.857991 -9.357177 4.511538 -5.709080 -18.724364 31.932022 -40.383883 -29.466177 -5.285833 5.286651 -31.111969 -0.481090 0.000000 0.000000 0.000000 -12.808699 -10.428850 3.634411 -8.920524 -19.765567 -4.404053 -11.369901 -22.497306 -9.090588 -6.914608 73.508422 3.141154 0.000000 0.000000 0.000000 
-8.984855 83.610634 15.851658 0.000000 0.000000 0.000000 7.527883 -5.483368 3.390573 -35.166906 8.600415 21.561685 34.194031 3.575962 -3.619903 -18.209035 5.642570 -9.299371 0.000000 0.000000 0.000000 10.136976 -43.843449 -0.919638 -20.524877 -17.258618 -23.034622 48.089555 -5.609707 1.099644 -5.953659 -8.715958 7.744827 0.000000 0.000000 0.000000 -4.737109 -45.254986 -0.987858 22.062947 7.034919 -10.773152 -2.776695 -14.975519 5.038807 -0.613777 -7.204463 2.786971 0.000000 0.000000 0.000000 -9.251640 -5.286031 4.370846 -2.882198 2.829993 2.375883 0.000000 0.000000 0.000000 -7.671727 -8.962190 4.567288 -6.174101 -17.709811 34.042571 -42.502143 -31.639519 -3.804671 4.676884 -33.489046 0.459207 0.000000 0.000000 0.000000 -13.555923 -10.382060 3.003765 -9.832424 -19.523592 -7.503829 -11.627321 -21.636318 -11.197582 -7.737073 73.450092 4.220262 0.000000 0.000000 0.000000 
-9.476138 83.115234 16.901806 0.000000 0.000000 0.000000 8.063998 -3.709293 3.659156 -34.012764 9.033044 21.877525 33.560773 2.223243 -3.800502 -18.583770 4.623641 -10.340913 0.000000 0.000000 0.000000 9.123332 -41.749139 -1.554259 -21.318429 -16.400819 -22.977694 51.811383 -6.513601 0.840482 -2.677424 -9.285675 6.456977 0.000000 0.000000 0.000000 -4.213764 -43.121723 -0.754024 21.994700 7.819042 -10.514152 -3.971110 -14.868673 4.360518 -0.998871 -7.096626 2.392984 0.000000 0.000000 0.000000 -9.466574 -5.253176 3.895753 -2.978017 2.698639 2.338665 0.000000 0.000000 0.000000 -8.466248 -8.489546 4.543684 -6.697018 -16.655549 35.928240 -44.550981 -33.573559 -2.610362 4.067664 -35.767720 1.319397 0.000000 0.000000 0.000000 -14.257014 -10.257284 2.294662 -10.740204 -19.038966 -10.938210 -12.329772 -20.413094 -13.467523 -8.986402 73.233971 5.645699 0.000000 0.000000 0.000000 
-9.932926 82.466377 18.002821 0.000000 0.000000 0.000000 8.520678 -1.900839 3.933599 -33.045203 9.461019 22.261759 33.275766 0.762846 -4.009690 -18.744930 3.512826 -11.470292 0.000000 0.000000 0.000000 7.932173 -39.249071 -2.339353 -22.384434 -15.343583 -23.037998 56.151327 -6.799365 0.676463 1.151193 -9.295330 5.742304 0.000000 0.000000 0.000000 -3.696410 -40.692314 -0.525757 21.849488 8.666298 -10.107077 -5.168504 -14.664046 3.576821 -1.360001 -6.951177 1.926651 0.000000 0.000000 0.000000 -9.731161 -5.155274 3.317293 -3.107647 2.564304 2.264140 0.000000 0.000000 0.000000 -9.213186 -7.953929 4.426621 -7.245592 -15.637882 37.497957 -46.529783 -35.197928 -1.820718 3.449058 -37.913745 2.024596 0.000000 0.000000 0.000000 -14.895553 -10.047307 1.510392 -11.610569 -18.278682 -14.694708 -13.553068 -18.796322 -15.918092 -10.643264 72.833483 7.354439 0.000000 0.000000 0.000000 
-10.340652 81.708878 19.130003 0.000000 0.000000 0.000000 8.876122 -0.072774 4.222033 -32.301262 9.871127 22.720085 33.322908 -0.776140 -4.207565 -18.721171 2.315411 -12.626223 0.000000 0.000000 0.000000 6.589015 -36.430470 -3.205794 -23.730628 -14.124118 -23.179550 60.901054 -6.411346 0.619498 5.372949 -8.660034 5.755181 0.000000 0.000000 0.000000 -3.199983 -37.937603 -0.325251 21.601926 9.602492 -9.595686 -6.332901 -14.346276 2.706039 -1.683143 -6.763327 1.396908 0.000000 0.000000 0.000000 -10.029809 -5.004171 2.645759 -3.264542 2.418205 2.152122 0.000000 0.000000 0.000000 -9.881960 -7.372367 4.201653 -7.779616 -14.731506 38.653147 -48.456156 -36.449673 -1.580602 2.795105 -39.914522 2.480025 0.000000 0.000000 0.000000 -15.453882 -9.746660 0.656325 -12.401046 -17.217310 -18.747223 -15.348413 -16.766019 -18.541462 -12.648057 72.213787 9.243123 0.000000 0.000000 0.000000 
-10.685730 80.905853 20.257029 0.000000 0.000000 0.000000 9.108654 1.773196 4.535161 -31.808867 10.251604 23.258500 33.659978 -2.376530 -4.362775 -18.553328 1.034136 -13.765029 0.000000 0.000000 0.000000 5.114526 -33.446425 -4.082633 -25.355013 -12.801326 -23.361354 65.800417 -5.373280 0.656040 9.740439 -7.351485 6.551421 0.000000 0.000000 0.000000 -2.734332 -34.842328 -0.170976 21.214042 10.640706 -9.032805 -7.413574 -13.901311 1.776896 -1.947533 -6.528133 0.818336 0.000000 0.000000 0.000000 -10.335747 -4.811123 1.897911 -3.436706 2.253209 2.004551 0.000000 0.000000 0.000000 -10.439065 -6.761103 3.860163 -8.254792 -13.994438 39.311004 -50.332613 -37.279562 -2.008843 2.075885 -41.763287 2.592704 0.000000 0.000000 0.000000 -15.913511 -9.352680 -0.258426 -13.061243 -15.843527 -23.048909 -17.722611 -14.307843 -21.287797 -14.913640 71.348662 11.187957 0.000000 0.000000 0.000000 
-10.957371 80.128365 21.362135 0.000000 0.000000 0.000000 9.203796 3.644243 4.880373 -31.580281 10.595505 23.877570 34.228055 -4.022158 -4.455964 -18.286114 -0.321503 -14.858539 0.000000 0.000000 0.000000 3.523958 -30.483940 -4.917337 -27.238241 -11.443158 -23.552096 70.575730 -3.785760 0.757798 13.949520 -5.420932 8.073091 0.000000 0.000000 0.000000 -2.300150 -31.411617 -0.074574 20.642968 11.771074 -8.471967 -8.348576 -13.320541 0.827276 -2.127117 -6.242045 0.211049 0.000000 0.000000 0.000000 -10.615324 -4.585544 1.097296 -3.608520 2.064986 1.826355 0.000000 0.000000 0.000000 -10.847831 -6.132416 3.406292 -8.628462 -13.454315 39.431348 -52.104832 -37.656568 -3.129546 1.277902 -43.429956 2.305370 0.000000 0.000000 0.000000 -16.255386 -8.866888 -1.219097 -13.536614 -14.168454 -27.524699 -20.625377 -11.413510 -24.056063 -17.351737 70.235327 13.077919 0.000000 0.000000 0.000000 
